<?xml version="1.0" encoding="UTF-8" standalone="no"?>
<!-- Created with Inkscape (http://www.inkscape.org/) -->

<svg
   width="1000.0001"
   height="1000.0001"
   viewBox="0 0 264.58335 264.58335"
   version="1.1"
   id="svg1"
   xml:space="preserve"
   xmlns="http://www.w3.org/2000/svg"
   xmlns:svg="http://www.w3.org/2000/svg"><defs
     id="defs1" /><g
     id="g231"
     transform="translate(-2652.3335)"><rect
       style="display:inline;fill:#ed6825;fill-opacity:1;stroke-width:0.264583"
       id="rect165"
       width="264.58334"
       height="264.58334"
       x="2652.3333"
       y="0" /><g
       id="g270"
       transform="translate(274.58331,-21.135899)"
       style="fill:#fafafa;fill-opacity:1"><g
         id="g268"
         transform="matrix(0.70413391,0,0,0.70413391,2223.5471,39.140619)"
         style="fill:#fafafa;fill-opacity:1"><path
           id="path233"
           style="fill:#fafafa;fill-opacity:1;stroke:none;stroke-width:0.595451"
           d="M 377.27289,72.535416 A 45.013601,43.178805 0 0 0 332.25931,115.7138 h 30.8309 a 14.434206,13.845855 0 0 1 14.42691,-13.79424 14.434206,13.845855 0 0 1 14.42808,13.79424 h 30.34128 A 45.013601,43.178805 0 0 0 377.27289,72.535416 Z" /><path
           id="path234"
           style="fill:#fafafa;fill-opacity:1;stroke:none;stroke-width:0.592215"
           d="m 436.71924,72.534252 a 44.768961,42.944141 0.01259236 0 0 -44.76823,42.943468 44.768961,42.944141 0.01259236 0 0 0.0181,0.23608 h 30.31919 a 14.927211,14.310631 4.8069939 0 1 -10e-4,-0.009 14.927211,14.310631 4.8069939 0 1 14.9223,-14.21292 14.927211,14.310631 4.8069939 0 1 14.90029,14.22222 h 29.37367 a 44.768961,42.944141 0.01259236 0 0 0.008,-0.23376 44.768961,42.944141 0.01259236 0 0 -44.76936,-42.945788 z" /><path
           id="path235"
           style="fill:#fafafa;fill-opacity:1;stroke:none;stroke-width:0.598539"
           d="m 332.25931,114.65547 v 102.82474 l 30.82393,-11.33605 v -91.48869 z" /><path
           id="path236"
           style="fill:#fafafa;fill-opacity:1;stroke:none;stroke-width:0.600352"
           d="m 391.95101,114.39088 v 81.36349 l 30.33547,-11.22393 v -70.13956 z" /><path
           id="path237"
           style="fill:#fafafa;fill-opacity:1;stroke:none;stroke-width:0.600838"
           d="m 452.13235,114.65547 -0.24772,59.28467 29.60397,-10.97097 v -48.3137 z" /><circle
           style="fill:#fafafa;fill-opacity:1;stroke:none;stroke-width:0.604809"
           id="circle237"
           cx="377.517"
           cy="48.811558"
           r="14.433712" /><circle
           style="fill:#fafafa;fill-opacity:1;stroke:none;stroke-width:0.625311"
           id="circle238"
           cx="437.20895"
           cy="48.811558"
           r="14.922993" /><rect
           style="fill:#fafafa;fill-opacity:1;stroke:none;stroke-width:0.472262"
           id="rect238"
           width="4.6372218"
           height="104.60835"
           x="332.25876"
           y="115.71435" /><rect
           style="fill:#fafafa;fill-opacity:1;stroke:none;stroke-width:0.590319"
           id="rect239"
           width="3.7794919"
           height="68.229774"
           x="339.68085"
           y="150.088" /><rect
           style="fill:#fafafa;fill-opacity:1;stroke:none;stroke-width:0.590319"
           id="rect240"
           width="3.7794919"
           height="68.229774"
           x="346.01886"
           y="153.61827" /><rect
           style="fill:#fafafa;fill-opacity:1;stroke:none;stroke-width:0.642833"
           id="rect241"
           width="4.5751743"
           height="66.837326"
           x="352.27121"
           y="156.72394" /><rect
           style="fill:#fafafa;fill-opacity:1;stroke:none;stroke-width:0.642833"
           id="rect242"
           width="4.5751743"
           height="66.837326"
           x="358.50812"
           y="149.1194" /><rect
           style="fill:#fafafa;fill-opacity:1;stroke:none;stroke-width:1.12526"
           id="rect243"
           width="4.6372223"
           height="4.8829384"
           x="332.25876"
           y="222.57321" /><rect
           style="fill:#fafafa;fill-opacity:1;stroke:none;stroke-width:0.917129"
           id="rect244"
           width="3.7794907"
           height="3.9797575"
           x="339.68085"
           y="220.56827" /><rect
           style="fill:#fafafa;fill-opacity:1;stroke:none;stroke-width:0.917129"
           id="rect245"
           width="3.7794919"
           height="3.9797585"
           x="346.01886"
           y="224.09839" /><rect
           style="fill:#fafafa;fill-opacity:1;stroke:none;stroke-width:1.12526"
           id="rect246"
           width="4.6372299"
           height="4.8829474"
           x="352.2402"
           y="225.81181" /><rect
           style="fill:#fafafa;fill-opacity:1;stroke:none;stroke-width:1.11021"
           id="rect247"
           width="4.5751743"
           height="4.8176026"
           x="358.50812"
           y="218.20731" /><g
           id="g257"
           transform="matrix(4.1854625,0,0,4.1854625,61.640471,-366.36393)"
           style="display:inline;fill:#fafafa;fill-opacity:1"><rect
             style="fill:#fafafa;fill-opacity:1;stroke:none;stroke-width:0.114793"
             id="rect248"
             width="1.0903491"
             height="26.285955"
             x="78.918449"
             y="113.92584" /><rect
             style="fill:#fafafa;fill-opacity:1;stroke:none;stroke-width:0.138802"
             id="rect249"
             width="0.88867116"
             height="16.042854"
             x="80.663605"
             y="122.01743" /><rect
             style="fill:#fafafa;fill-opacity:1;stroke:none;stroke-width:0.138802"
             id="rect250"
             width="0.88867116"
             height="16.042854"
             x="82.153862"
             y="120.04733" /><rect
             style="fill:#fafafa;fill-opacity:1;stroke:none;stroke-width:0.151149"
             id="rect251"
             width="1.0757598"
             height="15.715449"
             x="83.623978"
             y="125.25784" /><rect
             style="fill:#fafafa;fill-opacity:1;stroke:none;stroke-width:0.151149"
             id="rect252"
             width="1.0757598"
             height="15.715449"
             x="85.090454"
             y="123.46979" /><rect
             style="fill:#fafafa;fill-opacity:1;stroke:none;stroke-width:0.264583"
             id="rect253"
             width="1.0903492"
             height="1.1481245"
             x="78.918449"
             y="140.74097" /><rect
             style="fill:#fafafa;fill-opacity:1;stroke:none;stroke-width:0.215644"
             id="rect254"
             width="0.88867092"
             height="0.93575966"
             x="80.663605"
             y="138.58946" /><rect
             style="fill:#fafafa;fill-opacity:1;stroke:none;stroke-width:0.215644"
             id="rect255"
             width="0.88867116"
             height="0.93575996"
             x="82.153862"
             y="136.61935" /><rect
             style="fill:#fafafa;fill-opacity:1;stroke:none;stroke-width:0.264583"
             id="rect256"
             width="1.0903511"
             height="1.1481265"
             x="83.616684"
             y="141.50246" /><rect
             style="fill:#fafafa;fill-opacity:1;stroke:none;stroke-width:0.261043"
             id="rect257"
             width="1.0757598"
             height="1.132762"
             x="85.090454"
             y="139.71442" /></g><g
           id="g267"
           transform="matrix(4.0504485,0,0,4.0504485,132.47681,-347.10406)"
           style="display:inline;fill:#fafafa;fill-opacity:1"><rect
             style="fill:#fafafa;fill-opacity:1;stroke:none;stroke-width:0.0790797"
             id="rect258"
             width="1.0903491"
             height="12.474491"
             x="78.161575"
             y="127.74514"
             transform="matrix(1,0,0.00544694,0.99998517,0,0)" /><rect
             style="fill:#fafafa;fill-opacity:1;stroke:none;stroke-width:0.138802"
             id="rect259"
             width="0.88867116"
             height="16.042854"
             x="80.663605"
             y="122.01743" /><rect
             style="fill:#fafafa;fill-opacity:1;stroke:none;stroke-width:0.138802"
             id="rect260"
             width="0.88867116"
             height="16.042854"
             x="82.153862"
             y="120.04733" /><rect
             style="fill:#fafafa;fill-opacity:1;stroke:none;stroke-width:0.151149"
             id="rect261"
             width="1.0757598"
             height="15.715449"
             x="83.623978"
             y="125.25784" /><rect
             style="fill:#fafafa;fill-opacity:1;stroke:none;stroke-width:0.151149"
             id="rect262"
             width="1.0757598"
             height="15.715449"
             x="85.090454"
             y="123.46979" /><rect
             style="fill:#fafafa;fill-opacity:1;stroke:none;stroke-width:0.264583"
             id="rect263"
             width="1.0903492"
             height="1.1481245"
             x="78.918449"
             y="140.74097" /><rect
             style="fill:#fafafa;fill-opacity:1;stroke:none;stroke-width:0.215644"
             id="rect264"
             width="0.88867092"
             height="0.93575966"
             x="80.663605"
             y="138.58946" /><rect
             style="fill:#fafafa;fill-opacity:1;stroke:none;stroke-width:0.215644"
             id="rect265"
             width="0.88867116"
             height="0.93575996"
             x="82.153862"
             y="136.61935" /><rect
             style="fill:#fafafa;fill-opacity:1;stroke:none;stroke-width:0.264583"
             id="rect266"
             width="1.0903511"
             height="1.1481265"
             x="83.616684"
             y="141.50246" /><rect
             style="fill:#fafafa;fill-opacity:1;stroke:none;stroke-width:0.261043"
             id="rect267"
             width="1.0757598"
             height="1.132762"
             x="85.090454"
             y="139.71442" /></g></g><g
         id="g269"
         transform="translate(0,-2.8038392)"
         style="fill:#fafafa;fill-opacity:1"><path
           style="font-weight:bold;font-size:25.7406px;line-height:0;font-family:'Inter Tight';-inkscape-font-specification:'Inter Tight Bold';letter-spacing:1.89073px;stroke-width:0.563823"
           d="m 2368.7425,223.67864 h 4.8892 l 5.1531,12.58122 h 0.2137 l 5.1657,-12.58122 h 4.9018 v 18.72729 h -3.8712 v -12.19159 h -0.1508 l -4.864,12.10361 h -2.6143 l -4.8264,-12.12875 h -0.1508 v 12.21673 h -3.846 z m 27.845,18.72729 h -4.2357 l 6.4603,-18.72729 h 5.1029 l 6.4477,18.72729 h -4.223 l -4.7007,-14.45395 h -0.1508 z m -0.2514,-7.36523 h 10.0172 v 3.09189 h -10.0172 z m 23.9487,7.36523 h -4.8766 v -3.39354 h 4.7007 q 1.7721,0 2.9662,-0.61586 1.2066,-0.62843 1.8098,-1.94814 0.6159,-1.33228 0.6159,-3.41868 0,-2.07382 -0.6159,-3.39353 -0.6032,-1.31971 -1.8098,-1.93557 -1.1941,-0.62844 -2.9537,-0.62844 h -4.7886 v -3.39353 h 5.0149 q 2.8279,0 4.864,1.13118 2.0362,1.11861 3.1296,3.21757 1.0935,2.0864 1.0935,5.00232 0,2.9285 -1.106,5.02747 -1.0935,2.09896 -3.1422,3.23014 -2.0487,1.11861 -4.9018,1.11861 z m -2.6897,-18.72729 v 18.72729 h -3.9465 v -18.72729 z m 19.7634,0 v 18.72729 h -3.9466 v -18.72729 z m 7.5215,18.72729 h -4.2357 l 6.4603,-18.72729 h 5.1029 l 6.4477,18.72729 h -4.2231 l -4.7006,-14.45395 h -0.1509 z m -0.2514,-7.36523 h 10.0172 v 3.09189 h -10.0172 z"
           id="text268"
           transform="scale(1.039915,0.96161706)"
           aria-label="MADIA" /><path
           d="m 2449.4111,238.32734 h 1.427 l 1.9055,4.65162 h 0.073 l 1.9098,-4.65162 h 1.4442 v 6.42345 h -1.1425 v -4.4145 h -0.052 l -1.7848,4.39295 h -0.8363 l -1.7632,-4.40157 h -0.06 v 4.42312 h -1.1209 z m 9.0317,6.52261 q -0.4613,0 -0.8277,-0.16382 -0.3665,-0.16813 -0.5777,-0.49146 -0.2113,-0.32333 -0.2113,-0.79754 0,-0.40524 0.1509,-0.67253 0.1509,-0.26728 0.4096,-0.42679 0.2629,-0.15951 0.5906,-0.24142 0.3276,-0.0862 0.6768,-0.12071 0.4268,-0.0474 0.6898,-0.0819 0.263,-0.0345 0.3794,-0.11208 0.1207,-0.0776 0.1207,-0.24142 v -0.0216 q 0,-0.34919 -0.207,-0.54319 -0.2069,-0.19399 -0.6035,-0.19399 -0.4182,0 -0.6639,0.18106 -0.2414,0.18106 -0.3276,0.42679 l -1.0563,-0.15088 q 0.1251,-0.43973 0.4139,-0.73288 0.2888,-0.29746 0.7027,-0.44404 0.4182,-0.15088 0.9226,-0.15088 0.3449,0 0.6897,0.0819 0.3449,0.0776 0.6338,0.26728 0.2888,0.18969 0.4612,0.5087 0.1725,0.31902 0.1725,0.79755 v 3.22465 h -1.0907 v -0.6639 h -0.034 q -0.1035,0.19831 -0.2932,0.37506 -0.1853,0.17245 -0.4655,0.28022 -0.276,0.10778 -0.6553,0.10778 z m 0.2888,-0.83634 q 0.3449,0 0.5949,-0.13365 0.2501,-0.13795 0.388,-0.36212 0.138,-0.22849 0.138,-0.49577 v -0.56475 q -0.056,0.0431 -0.1811,0.0819 -0.125,0.0345 -0.2845,0.0647 -0.1595,0.0302 -0.3147,0.0517 -0.1509,0.0215 -0.263,0.0345 -0.2543,0.0345 -0.457,0.11639 -0.1983,0.0776 -0.3147,0.21556 -0.1164,0.13795 -0.1164,0.35781 0,0.31471 0.2285,0.47422 0.2285,0.15951 0.582,0.15951 z m 4.2248,-5.68627 v 6.42345 h -1.1338 v -6.42345 z m 2.2245,6.52261 q -0.4612,0 -0.8277,-0.16382 -0.3664,-0.16813 -0.5777,-0.49146 -0.2112,-0.32333 -0.2112,-0.79754 0,-0.40524 0.1509,-0.67253 0.1509,-0.26728 0.4095,-0.42679 0.263,-0.15951 0.5906,-0.24142 0.3277,-0.0862 0.6769,-0.12071 0.4268,-0.0474 0.6897,-0.0819 0.263,-0.0345 0.3794,-0.11208 0.1207,-0.0776 0.1207,-0.24142 v -0.0216 q 0,-0.34919 -0.2069,-0.54319 -0.2069,-0.19399 -0.6036,-0.19399 -0.4181,0 -0.6639,0.18106 -0.2414,0.18106 -0.3276,0.42679 l -1.0562,-0.15088 q 0.125,-0.43973 0.4139,-0.73288 0.2888,-0.29746 0.7027,-0.44404 0.4181,-0.15088 0.9225,-0.15088 0.3449,0 0.6898,0.0819 0.3449,0.0776 0.6337,0.26728 0.2889,0.18969 0.4613,0.5087 0.1724,0.31902 0.1724,0.79755 v 3.22465 h -1.0907 v -0.6639 h -0.034 q -0.1035,0.19831 -0.2932,0.37506 -0.1854,0.17245 -0.4656,0.28022 -0.2759,0.10778 -0.6553,0.10778 z m 0.2889,-0.83634 q 0.3449,0 0.5949,-0.13365 0.25,-0.13795 0.388,-0.36212 0.1379,-0.22849 0.1379,-0.49577 v -0.56475 q -0.056,0.0431 -0.181,0.0819 -0.125,0.0345 -0.2845,0.0647 -0.1596,0.0302 -0.3148,0.0517 -0.1508,0.0215 -0.2629,0.0345 -0.2544,0.0345 -0.457,0.11639 -0.1983,0.0776 -0.3147,0.21556 -0.1164,0.13795 -0.1164,0.35781 0,0.31471 0.2285,0.47422 0.2285,0.15951 0.582,0.15951 z m 4.2248,-2.08224 v 2.81942 h -1.1338 v -4.81974 h 1.1122 v 0.82341 h 0.056 q 0.1638,-0.40524 0.513,-0.64235 0.3535,-0.24141 0.8967,-0.24141 0.5001,0 0.8708,0.21124 0.3708,0.21124 0.5734,0.62079 0.2069,0.40523 0.2069,0.98291 v 3.06515 h -1.1338 v -2.88839 q 0,-0.48284 -0.25,-0.75444 -0.2501,-0.2759 -0.6898,-0.2759 -0.2975,0 -0.5302,0.12933 -0.2285,0.12933 -0.3622,0.37506 -0.1293,0.24142 -0.1293,0.59492 z m 6.0182,4.7249 q -0.9182,0 -1.4442,-0.35781 -0.5259,-0.35351 -0.6768,-0.8579 l 1.0174,-0.25004 q 0.069,0.14226 0.2026,0.28022 0.1336,0.14226 0.3578,0.23279 0.2242,0.0949 0.5648,0.0949 0.4828,0 0.7975,-0.23711 0.319,-0.2328 0.319,-0.76306 v -0.90962 h -0.065 q -0.082,0.17244 -0.2501,0.35781 -0.1681,0.18107 -0.444,0.3104 -0.2716,0.12502 -0.6898,0.12502 -0.5518,0 -1.0045,-0.26298 -0.4483,-0.26297 -0.7156,-0.78461 -0.263,-0.52163 -0.263,-1.30624 0,-0.79323 0.263,-1.34073 0.2673,-0.54751 0.7199,-0.83204 0.4527,-0.28452 1.0088,-0.28452 0.4225,0 0.6984,0.14226 0.2759,0.14226 0.4397,0.34488 0.1639,0.19831 0.2544,0.37075 h 0.06 v -0.79754 h 1.1079 v 4.89734 q 0,0.61648 -0.2932,1.02172 -0.2931,0.40524 -0.8061,0.60354 -0.5087,0.20262 -1.1597,0.20262 z m 0.01,-2.86684 q 0.5432,0 0.8364,-0.38799 0.2974,-0.39231 0.2974,-1.08207 0,-0.45697 -0.1293,-0.79755 -0.1293,-0.34057 -0.3837,-0.53025 -0.2543,-0.18969 -0.6208,-0.18969 -0.3793,0 -0.6337,0.19831 -0.2543,0.19831 -0.3837,0.54319 -0.125,0.34057 -0.125,0.77599 0,0.43972 0.1293,0.77167 0.1294,0.33195 0.3837,0.51733 0.2587,0.18106 0.6294,0.18106 z m 7.1779,0.96136 h -1.6296 v -1.00878 h 1.5693 q 0.6682,0 1.1165,-0.24142 0.4527,-0.24573 0.6768,-0.73719 0.2285,-0.49145 0.2285,-1.22864 0,-0.73719 -0.2241,-1.22434 -0.2242,-0.48715 -0.6683,-0.72856 -0.444,-0.24573 -1.0993,-0.24573 h -1.6339 v -1.00879 h 1.7029 q 0.9571,0 1.6425,0.38369 0.6898,0.38368 1.0605,1.10362 0.3708,0.71995 0.3708,1.72011 0,1.00016 -0.3708,1.72441 -0.3707,0.71995 -1.0691,1.10794 -0.6941,0.38368 -1.6727,0.38368 z m -1.0174,-6.42345 v 6.42345 h -1.164 v -6.42345 z m 4.8499,6.42345 v -4.81974 h 1.1338 v 4.81974 z m 0.5691,-5.49657 q -0.2716,0 -0.4656,-0.18107 -0.194,-0.18106 -0.194,-0.43541 0,-0.25866 0.194,-0.43973 0.194,-0.18106 0.4656,-0.18106 0.2673,0 0.4613,0.18106 0.194,0.18107 0.194,0.43542 0,0.25866 -0.194,0.43972 -0.194,0.18107 -0.4613,0.18107 z m 3.4876,7.40205 q -0.9182,0 -1.4442,-0.35781 -0.5259,-0.35351 -0.6768,-0.8579 l 1.0174,-0.25004 q 0.069,0.14226 0.2026,0.28022 0.1336,0.14226 0.3578,0.23279 0.2242,0.0949 0.5648,0.0949 0.4828,0 0.7975,-0.23711 0.319,-0.2328 0.319,-0.76306 v -0.90962 h -0.065 q -0.082,0.17244 -0.2501,0.35781 -0.1681,0.18107 -0.444,0.3104 -0.2716,0.12502 -0.6898,0.12502 -0.5518,0 -1.0045,-0.26298 -0.4483,-0.26297 -0.7156,-0.78461 -0.263,-0.52163 -0.263,-1.30624 0,-0.79323 0.263,-1.34073 0.2673,-0.54751 0.72,-0.83204 0.4526,-0.28452 1.0087,-0.28452 0.4225,0 0.6984,0.14226 0.2759,0.14226 0.4398,0.34488 0.1638,0.19831 0.2543,0.37075 h 0.06 v -0.79754 h 1.1079 v 4.89734 q 0,0.61648 -0.2932,1.02172 -0.2931,0.40524 -0.8061,0.60354 -0.5087,0.20262 -1.1597,0.20262 z m 0.01,-2.86684 q 0.5432,0 0.8364,-0.38799 0.2974,-0.39231 0.2974,-1.08207 0,-0.45697 -0.1293,-0.79755 -0.1293,-0.34057 -0.3837,-0.53025 -0.2543,-0.18969 -0.6208,-0.18969 -0.3793,0 -0.6337,0.19831 -0.2543,0.19831 -0.3837,0.54319 -0.125,0.34057 -0.125,0.77599 0,0.43972 0.1293,0.77167 0.1294,0.33195 0.3837,0.51733 0.2587,0.18106 0.6294,0.18106 z m 3.0867,0.96136 v -4.81974 h 1.1338 v 4.81974 z m 0.5691,-5.49657 q -0.2716,0 -0.4656,-0.18107 -0.194,-0.18106 -0.194,-0.43541 0,-0.25866 0.194,-0.43973 0.194,-0.18106 0.4656,-0.18106 0.2673,0 0.4613,0.18106 0.194,0.18107 0.194,0.43542 0,0.25866 -0.194,0.43972 -0.194,0.18107 -0.4613,0.18107 z m 3.8023,0.67683 v 0.87945 h -2.7633 v -0.87945 z m -2.0865,-1.14674 h 1.1338 v 4.51797 q 0,0.28453 0.125,0.42249 0.125,0.13364 0.3966,0.13364 0.073,0 0.1638,-0.0129 0.091,-0.0129 0.1639,-0.0302 l 0.194,0.88807 q -0.1811,0.056 -0.3665,0.0819 -0.1853,0.0302 -0.3707,0.0302 -0.6725,0 -1.0562,-0.35351 -0.3837,-0.35781 -0.3837,-0.97429 z m 4.0998,6.06564 q -0.4613,0 -0.8277,-0.16382 -0.3665,-0.16813 -0.5777,-0.49146 -0.2113,-0.32333 -0.2113,-0.79754 0,-0.40524 0.1509,-0.67253 0.1509,-0.26728 0.4096,-0.42679 0.263,-0.15951 0.5906,-0.24142 0.3276,-0.0862 0.6768,-0.12071 0.4268,-0.0474 0.6898,-0.0819 0.263,-0.0345 0.3794,-0.11208 0.1207,-0.0776 0.1207,-0.24142 v -0.0216 q 0,-0.34919 -0.207,-0.54319 -0.2069,-0.19399 -0.6035,-0.19399 -0.4182,0 -0.6639,0.18106 -0.2414,0.18106 -0.3276,0.42679 l -1.0562,-0.15088 q 0.125,-0.43973 0.4138,-0.73288 0.2889,-0.29746 0.7027,-0.44404 0.4182,-0.15088 0.9226,-0.15088 0.3449,0 0.6897,0.0819 0.3449,0.0776 0.6338,0.26728 0.2888,0.18969 0.4612,0.5087 0.1725,0.31902 0.1725,0.79755 v 3.22465 h -1.0907 v -0.6639 h -0.035 q -0.1035,0.19831 -0.2931,0.37506 -0.1854,0.17245 -0.4656,0.28022 -0.2759,0.10778 -0.6553,0.10778 z m 0.2888,-0.83634 q 0.3449,0 0.595,-0.13365 0.25,-0.13795 0.3879,-0.36212 0.138,-0.22849 0.138,-0.49577 v -0.56475 q -0.056,0.0431 -0.1811,0.0819 -0.125,0.0345 -0.2845,0.0647 -0.1595,0.0302 -0.3147,0.0517 -0.1509,0.0215 -0.263,0.0345 -0.2543,0.0345 -0.4569,0.11639 -0.1984,0.0776 -0.3147,0.21556 -0.1164,0.13795 -0.1164,0.35781 0,0.31471 0.2284,0.47422 0.2285,0.15951 0.582,0.15951 z m 4.2248,-5.68627 v 6.42345 h -1.1338 v -6.42345 z m 2.7462,6.42345 v -6.42345 h 2.4099 q 0.7414,0 1.2415,0.27591 0.5044,0.27591 0.7631,0.75874 0.2586,0.48284 0.2586,1.09501 0,0.61648 -0.2629,1.09931 -0.2587,0.47853 -0.7674,0.75443 -0.5087,0.2716 -1.2502,0.2716 h -1.5951 v -0.95705 h 1.4356 q 0.4354,0 0.7113,-0.14658 0.2802,-0.15088 0.4096,-0.41386 0.1336,-0.26728 0.1336,-0.60785 0,-0.34489 -0.1336,-0.60355 -0.1294,-0.26297 -0.4096,-0.40524 -0.2759,-0.14657 -0.7156,-0.14657 h -1.0648 v 5.44915 z m 5.3026,0 v -4.81974 h 1.0993 v 0.81048 h 0.052 q 0.1293,-0.42249 0.4527,-0.64666 0.3233,-0.22848 0.7372,-0.22848 0.09,0 0.2069,0.009 0.1207,0.009 0.1983,0.0215 v 1.04327 q -0.073,-0.0259 -0.2285,-0.0431 -0.1552,-0.0172 -0.2975,-0.0172 -0.3147,0 -0.5604,0.13364 -0.2457,0.13364 -0.388,0.36644 -0.1379,0.2328 -0.1379,0.54319 v 2.82804 z m 5.0741,0.0949 q -0.7071,0 -1.2244,-0.3104 -0.5173,-0.31039 -0.8018,-0.87083 -0.2803,-0.56043 -0.2803,-1.30193 0,-0.74581 0.2803,-1.30625 0.2845,-0.56474 0.8018,-0.87514 0.5173,-0.31039 1.2244,-0.31039 0.707,0 1.2243,0.31039 0.5173,0.3104 0.8018,0.87514 0.2846,0.56044 0.2846,1.30625 0,0.7415 -0.2846,1.30193 -0.2845,0.56044 -0.8018,0.87083 -0.5173,0.3104 -1.2243,0.3104 z m 0,-0.91394 q 0.3923,0 0.6466,-0.20693 0.2544,-0.21125 0.3794,-0.56906 0.1293,-0.35782 0.1293,-0.79323 0,-0.44404 -0.1293,-0.80186 -0.125,-0.35781 -0.3794,-0.56474 -0.2543,-0.21124 -0.6466,-0.21124 -0.3837,0 -0.6424,0.21124 -0.2587,0.20693 -0.388,0.56474 -0.125,0.35782 -0.125,0.80186 0,0.43541 0.125,0.79323 0.1293,0.35781 0.388,0.56906 0.2587,0.20693 0.6424,0.20693 z m 4.7119,0.90531 q -0.5647,0 -1.0174,-0.28884 -0.4483,-0.29315 -0.707,-0.84927 -0.2587,-0.55612 -0.2587,-1.34936 0,-0.80616 0.263,-1.35797 0.2673,-0.55182 0.7156,-0.83635 0.4484,-0.28452 1.0045,-0.28452 0.4268,0 0.6984,0.14226 0.2716,0.14226 0.4311,0.34488 0.1638,0.19831 0.2501,0.37075 h 0.047 v -2.40125 h 1.1295 v 6.42345 h -1.108 v -0.76305 h -0.069 q -0.091,0.17675 -0.2544,0.37506 -0.1638,0.194 -0.4354,0.33626 -0.2716,0.13795 -0.6898,0.13795 z m 0.3147,-0.93118 q 0.3622,0 0.6122,-0.194 0.2543,-0.19831 0.388,-0.5475 0.1336,-0.3535 0.1336,-0.8191 0,-0.4699 -0.1336,-0.81478 -0.1293,-0.3492 -0.3837,-0.53888 -0.25,-0.18969 -0.6165,-0.18969 -0.375,0 -0.6294,0.19831 -0.2543,0.19831 -0.3837,0.5475 -0.125,0.34919 -0.125,0.79754 0,0.44835 0.1293,0.80186 0.1294,0.3535 0.3794,0.55612 0.2544,0.20262 0.6294,0.20262 z m 6.1519,-1.17691 v -2.79787 h 1.1338 v 4.81974 h -1.0993 v -0.85789 h -0.052 q -0.1638,0.40523 -0.5345,0.6639 -0.3708,0.25866 -0.914,0.25435 -0.4742,0 -0.8363,-0.20693 -0.3578,-0.21124 -0.5648,-0.61648 -0.2026,-0.40955 -0.2026,-0.98723 v -3.06946 h 1.1338 v 2.89702 q 0,0.45266 0.2501,0.72425 0.2543,0.2716 0.6639,0.26729 0.25,0 0.4828,-0.12071 0.2371,-0.12071 0.388,-0.36213 0.1509,-0.24142 0.1509,-0.60785 z m 4.0696,2.11672 q -0.7199,0 -1.2373,-0.31471 -0.5173,-0.31902 -0.7932,-0.87945 -0.2759,-0.56044 -0.2759,-1.289 0,-0.73719 0.2802,-1.29763 0.2802,-0.56043 0.7976,-0.87514 0.5173,-0.31901 1.22,-0.31901 0.5906,0 1.0432,0.21555 0.4527,0.21555 0.72,0.60785 0.2716,0.388 0.3104,0.90963 h -1.0864 q -0.043,-0.23279 -0.1681,-0.41817 -0.125,-0.18537 -0.3277,-0.29315 -0.1983,-0.10777 -0.4742,-0.10777 -0.3492,0 -0.6121,0.18968 -0.2587,0.18538 -0.4053,0.53457 -0.1466,0.3492 -0.1466,0.83634 0,0.49146 0.1423,0.84928 0.1423,0.3535 0.4052,0.5475 0.263,0.18969 0.6165,0.18969 0.3751,0 0.6337,-0.21987 0.263,-0.21986 0.3363,-0.60785 h 1.0864 q -0.039,0.51301 -0.3018,0.90531 -0.263,0.39231 -0.7113,0.61648 -0.4484,0.21987 -1.0519,0.21987 z m 5.0784,-4.91459 v 0.87945 h -2.7634 v -0.87945 z m -2.0865,-1.14674 h 1.1338 v 4.51797 q 0,0.28453 0.125,0.42249 0.125,0.13364 0.3966,0.13364 0.073,0 0.1638,-0.0129 0.091,-0.0129 0.1638,-0.0302 l 0.194,0.88807 q -0.181,0.056 -0.3664,0.0819 -0.1854,0.0302 -0.3707,0.0302 -0.6726,0 -1.0563,-0.35351 -0.3836,-0.35781 -0.3836,-0.97429 z m 5.4491,5.96648 h -1.2459 l 2.2676,-6.42345 h 1.4313 l 2.2633,6.42345 h -1.2416 l -1.7158,-5.10427 h -0.052 z m 0.043,-2.51764 h 3.3842 v 0.93118 h -3.3842 z m 7.0744,4.42312 q -0.9182,0 -1.4442,-0.35781 -0.5259,-0.35351 -0.6768,-0.8579 l 1.0174,-0.25004 q 0.069,0.14226 0.2026,0.28022 0.1337,0.14226 0.3579,0.23279 0.2241,0.0949 0.5647,0.0949 0.4828,0 0.7975,-0.23711 0.3191,-0.2328 0.3191,-0.76306 v -0.90962 h -0.065 q -0.082,0.17244 -0.25,0.35781 -0.1682,0.18107 -0.4441,0.3104 -0.2716,0.12502 -0.6897,0.12502 -0.5519,0 -1.0045,-0.26298 -0.4484,-0.26297 -0.7157,-0.78461 -0.2629,-0.52163 -0.2629,-1.30624 0,-0.79323 0.2629,-1.34073 0.2673,-0.54751 0.72,-0.83204 0.4526,-0.28452 1.0088,-0.28452 0.4225,0 0.6984,0.14226 0.2759,0.14226 0.4397,0.34488 0.1638,0.19831 0.2543,0.37075 h 0.06 v -0.79754 h 1.1079 v 4.89734 q 0,0.61648 -0.2931,1.02172 -0.2932,0.40524 -0.8062,0.60354 -0.5087,0.20262 -1.1597,0.20262 z m 0.01,-2.86684 q 0.5432,0 0.8363,-0.38799 0.2975,-0.39231 0.2975,-1.08207 0,-0.45697 -0.1294,-0.79755 -0.1293,-0.34057 -0.3836,-0.53025 -0.2544,-0.18969 -0.6208,-0.18969 -0.3794,0 -0.6338,0.19831 -0.2543,0.19831 -0.3836,0.54319 -0.1251,0.34057 -0.1251,0.77599 0,0.43972 0.1294,0.77167 0.1293,0.33195 0.3837,0.51733 0.2586,0.18106 0.6294,0.18106 z m 5.2206,1.05621 q -0.7242,0 -1.2502,-0.30178 -0.5259,-0.30608 -0.8104,-0.8622 -0.2803,-0.55613 -0.2803,-1.31056 0,-0.74581 0.2803,-1.30625 0.2802,-0.56474 0.7889,-0.87945 0.5087,-0.3147 1.1984,-0.3147 0.4441,0 0.8407,0.14226 0.4009,0.14226 0.707,0.43973 0.3104,0.29746 0.4872,0.75874 0.1767,0.45697 0.1767,1.09069 v 0.35351 h -3.9489 v -0.76306 h 3.3842 l -0.5303,0.22418 q 0,-0.40955 -0.125,-0.71132 -0.125,-0.30609 -0.3708,-0.47853 -0.2457,-0.17244 -0.6121,-0.17244 -0.3665,0 -0.6251,0.17244 -0.2587,0.17244 -0.3923,0.46559 -0.1337,0.28884 -0.1337,0.64666 v 0.53026 q 0,0.43972 0.1509,0.75443 0.1552,0.31039 0.4311,0.47421 0.2802,0.16382 0.651,0.16382 0.2414,0 0.4397,-0.069 0.2026,-0.069 0.3449,-0.20693 0.1466,-0.14227 0.2242,-0.3492 l 1.0605,0.12502 q -0.1035,0.41817 -0.3837,0.73288 -0.2759,0.31039 -0.7113,0.48284 -0.4311,0.16813 -0.9916,0.16813 z m 3.8843,-2.91427 v 2.81942 h -1.1338 v -4.81974 h 1.1122 v 0.82341 h 0.056 q 0.1638,-0.40524 0.513,-0.64235 0.3535,-0.24141 0.8967,-0.24141 0.5001,0 0.8708,0.21124 0.3708,0.21124 0.5734,0.62079 0.2069,0.40523 0.2069,0.98291 v 3.06515 h -1.1338 v -2.88839 q 0,-0.48284 -0.25,-0.75444 -0.2501,-0.2759 -0.6898,-0.2759 -0.2975,0 -0.5303,0.12933 -0.2284,0.12933 -0.3621,0.37506 -0.1293,0.24142 -0.1293,0.59492 z m 6.0311,2.91427 q -0.7199,0 -1.2372,-0.31471 -0.5174,-0.31902 -0.7933,-0.87945 -0.2759,-0.56044 -0.2759,-1.289 0,-0.73719 0.2802,-1.29763 0.2803,-0.56043 0.7976,-0.87514 0.5173,-0.31901 1.22,-0.31901 0.5906,0 1.0433,0.21555 0.4526,0.21555 0.7199,0.60785 0.2716,0.388 0.3104,0.90963 h -1.0864 q -0.043,-0.23279 -0.1681,-0.41817 -0.125,-0.18537 -0.3276,-0.29315 -0.1983,-0.10777 -0.4742,-0.10777 -0.3492,0 -0.6122,0.18968 -0.2587,0.18538 -0.4053,0.53457 -0.1465,0.3492 -0.1465,0.83634 0,0.49146 0.1422,0.84928 0.1423,0.3535 0.4053,0.5475 0.2629,0.18969 0.6165,0.18969 0.375,0 0.6337,-0.21987 0.2629,-0.21986 0.3362,-0.60785 h 1.0864 q -0.039,0.51301 -0.3018,0.90531 -0.2629,0.39231 -0.7113,0.61648 -0.4483,0.21987 -1.0519,0.21987 z m 3.2204,1.70717 q -0.2328,0.004 -0.4311,-0.0345 -0.194,-0.0345 -0.3147,-0.0819 l 0.2672,-0.88376 0.056,0.0172 q 0.3449,0.0905 0.5863,0.0129 0.2457,-0.0776 0.3923,-0.4699 l 0.095,-0.25866 -1.7416,-4.92321 h 1.2028 l 1.1079,3.64283 h 0.052 l 1.1123,-3.64283 h 1.2114 l -1.9314,5.40173 q -0.1336,0.38369 -0.3535,0.65528 -0.2198,0.27591 -0.5432,0.41817 -0.3233,0.14658 -0.7673,0.14658 z"
           id="text269"
           style="font-weight:600;font-size:8.82901px;font-family:'Inter Tight';-inkscape-font-specification:'Inter Tight Semi-Bold';letter-spacing:0px;stroke-width:0.220726"
           aria-label="Malang Digital Product Agency" /></g></g></g></svg>
