<?xml version="1.0" encoding="UTF-8" standalone="no"?>
<!-- Created with Inkscape (http://www.inkscape.org/) -->

<svg
   width="1000.0001"
   height="1000.0001"
   viewBox="0 0 264.58335 264.58335"
   version="1.1"
   id="svg1"
   xml:space="preserve"
   xmlns="http://www.w3.org/2000/svg"
   xmlns:svg="http://www.w3.org/2000/svg"><defs
     id="defs1" /><g
     id="layer2"
     transform="translate(-274.58335)"><rect
       style="fill:#fafafa;fill-opacity:1;stroke-width:0.264583"
       id="rect117"
       width="264.58334"
       height="264.58334"
       x="274.58334"
       y="0" /><g
       id="g152"
       transform="matrix(0.70413391,0,0,0.70413391,120.38042,39.140619)"><path
         id="path117"
         style="fill:#ed6825;fill-opacity:1;stroke:none;stroke-width:0.595451"
         d="M 377.27289,72.535416 A 45.013601,43.178805 0 0 0 332.25931,115.7138 h 30.8309 a 14.434206,13.845855 0 0 1 14.42691,-13.79424 14.434206,13.845855 0 0 1 14.42808,13.79424 h 30.34128 A 45.013601,43.178805 0 0 0 377.27289,72.535416 Z" /><path
         id="path118"
         style="fill:#ed6825;fill-opacity:1;stroke:none;stroke-width:0.592215"
         d="m 436.71924,72.534252 a 44.768961,42.944141 0.01259236 0 0 -44.76823,42.943468 44.768961,42.944141 0.01259236 0 0 0.0181,0.23608 h 30.31919 a 14.927211,14.310631 4.8069939 0 1 -10e-4,-0.009 14.927211,14.310631 4.8069939 0 1 14.9223,-14.21292 14.927211,14.310631 4.8069939 0 1 14.90029,14.22222 h 29.37367 a 44.768961,42.944141 0.01259236 0 0 0.008,-0.23376 44.768961,42.944141 0.01259236 0 0 -44.76936,-42.945788 z" /><path
         id="path119"
         style="fill:#ed6825;fill-opacity:1;stroke:none;stroke-width:0.598539"
         d="m 332.25931,114.65547 v 102.82474 l 30.82393,-11.33605 v -91.48869 z" /><path
         id="path120"
         style="fill:#ed6825;fill-opacity:1;stroke:none;stroke-width:0.600352"
         d="m 391.95101,114.39088 v 81.36349 l 30.33547,-11.22393 v -70.13956 z" /><path
         id="path121"
         style="fill:#ed6825;fill-opacity:1;stroke:none;stroke-width:0.600838"
         d="m 452.13235,114.65547 -0.24772,59.28467 29.60397,-10.97097 v -48.3137 z" /><circle
         style="fill:#ed6825;fill-opacity:1;stroke:none;stroke-width:0.604809"
         id="circle121"
         cx="377.517"
         cy="48.811558"
         r="14.433712" /><circle
         style="fill:#ed6825;fill-opacity:1;stroke:none;stroke-width:0.625311"
         id="circle122"
         cx="437.20895"
         cy="48.811558"
         r="14.922993" /><rect
         style="fill:#ed6825;fill-opacity:1;stroke:none;stroke-width:0.472262"
         id="rect122"
         width="4.6372218"
         height="104.60835"
         x="332.25876"
         y="115.71435" /><rect
         style="fill:#ed6825;fill-opacity:1;stroke:none;stroke-width:0.590319"
         id="rect123"
         width="3.7794919"
         height="68.229774"
         x="339.68085"
         y="150.088" /><rect
         style="fill:#ed6825;fill-opacity:1;stroke:none;stroke-width:0.590319"
         id="rect124"
         width="3.7794919"
         height="68.229774"
         x="346.01886"
         y="153.61827" /><rect
         style="fill:#ed6825;fill-opacity:1;stroke:none;stroke-width:0.642833"
         id="rect125"
         width="4.5751743"
         height="66.837326"
         x="352.27121"
         y="156.72394" /><rect
         style="fill:#ed6825;fill-opacity:1;stroke:none;stroke-width:0.642833"
         id="rect126"
         width="4.5751743"
         height="66.837326"
         x="358.50812"
         y="149.1194" /><rect
         style="fill:#ed6825;fill-opacity:1;stroke:none;stroke-width:1.12526"
         id="rect127"
         width="4.6372223"
         height="4.8829384"
         x="332.25876"
         y="222.57321" /><rect
         style="fill:#ed6825;fill-opacity:1;stroke:none;stroke-width:0.917129"
         id="rect128"
         width="3.7794907"
         height="3.9797575"
         x="339.68085"
         y="220.56827" /><rect
         style="fill:#ed6825;fill-opacity:1;stroke:none;stroke-width:0.917129"
         id="rect129"
         width="3.7794919"
         height="3.9797585"
         x="346.01886"
         y="224.09839" /><rect
         style="fill:#ed6825;fill-opacity:1;stroke:none;stroke-width:1.12526"
         id="rect130"
         width="4.6372299"
         height="4.8829474"
         x="352.2402"
         y="225.81181" /><rect
         style="fill:#ed6825;fill-opacity:1;stroke:none;stroke-width:1.11021"
         id="rect131"
         width="4.5751743"
         height="4.8176026"
         x="358.50812"
         y="218.20731" /><g
         id="g141"
         transform="matrix(4.1854625,0,0,4.1854625,61.640471,-366.36393)"
         style="display:inline"><rect
           style="fill:#ed6825;fill-opacity:1;stroke:none;stroke-width:0.114793"
           id="rect132"
           width="1.0903491"
           height="26.285955"
           x="78.918449"
           y="113.92584" /><rect
           style="fill:#ed6825;fill-opacity:1;stroke:none;stroke-width:0.138802"
           id="rect133"
           width="0.88867116"
           height="16.042854"
           x="80.663605"
           y="122.01743" /><rect
           style="fill:#ed6825;fill-opacity:1;stroke:none;stroke-width:0.138802"
           id="rect134"
           width="0.88867116"
           height="16.042854"
           x="82.153862"
           y="120.04733" /><rect
           style="fill:#ed6825;fill-opacity:1;stroke:none;stroke-width:0.151149"
           id="rect135"
           width="1.0757598"
           height="15.715449"
           x="83.623978"
           y="125.25784" /><rect
           style="fill:#ed6825;fill-opacity:1;stroke:none;stroke-width:0.151149"
           id="rect136"
           width="1.0757598"
           height="15.715449"
           x="85.090454"
           y="123.46979" /><rect
           style="fill:#ed6825;fill-opacity:1;stroke:none;stroke-width:0.264583"
           id="rect137"
           width="1.0903492"
           height="1.1481245"
           x="78.918449"
           y="140.74097" /><rect
           style="fill:#ed6825;fill-opacity:1;stroke:none;stroke-width:0.215644"
           id="rect138"
           width="0.88867092"
           height="0.93575966"
           x="80.663605"
           y="138.58946" /><rect
           style="fill:#ed6825;fill-opacity:1;stroke:none;stroke-width:0.215644"
           id="rect139"
           width="0.88867116"
           height="0.93575996"
           x="82.153862"
           y="136.61935" /><rect
           style="fill:#ed6825;fill-opacity:1;stroke:none;stroke-width:0.264583"
           id="rect140"
           width="1.0903511"
           height="1.1481265"
           x="83.616684"
           y="141.50246" /><rect
           style="fill:#ed6825;fill-opacity:1;stroke:none;stroke-width:0.261043"
           id="rect141"
           width="1.0757598"
           height="1.132762"
           x="85.090454"
           y="139.71442" /></g><g
         id="g151"
         transform="matrix(4.0504485,0,0,4.0504485,132.47681,-347.10406)"
         style="display:inline"><rect
           style="fill:#ed6825;fill-opacity:1;stroke:none;stroke-width:0.0790797"
           id="rect142"
           width="1.0903491"
           height="12.474491"
           x="78.161575"
           y="127.74514"
           transform="matrix(1,0,0.00544694,0.99998517,0,0)" /><rect
           style="fill:#ed6825;fill-opacity:1;stroke:none;stroke-width:0.138802"
           id="rect143"
           width="0.88867116"
           height="16.042854"
           x="80.663605"
           y="122.01743" /><rect
           style="fill:#ed6825;fill-opacity:1;stroke:none;stroke-width:0.138802"
           id="rect144"
           width="0.88867116"
           height="16.042854"
           x="82.153862"
           y="120.04733" /><rect
           style="fill:#ed6825;fill-opacity:1;stroke:none;stroke-width:0.151149"
           id="rect145"
           width="1.0757598"
           height="15.715449"
           x="83.623978"
           y="125.25784" /><rect
           style="fill:#ed6825;fill-opacity:1;stroke:none;stroke-width:0.151149"
           id="rect146"
           width="1.0757598"
           height="15.715449"
           x="85.090454"
           y="123.46979" /><rect
           style="fill:#ed6825;fill-opacity:1;stroke:none;stroke-width:0.264583"
           id="rect147"
           width="1.0903492"
           height="1.1481245"
           x="78.918449"
           y="140.74097" /><rect
           style="fill:#ed6825;fill-opacity:1;stroke:none;stroke-width:0.215644"
           id="rect148"
           width="0.88867092"
           height="0.93575966"
           x="80.663605"
           y="138.58946" /><rect
           style="fill:#ed6825;fill-opacity:1;stroke:none;stroke-width:0.215644"
           id="rect149"
           width="0.88867116"
           height="0.93575996"
           x="82.153862"
           y="136.61935" /><rect
           style="fill:#ed6825;fill-opacity:1;stroke:none;stroke-width:0.264583"
           id="rect150"
           width="1.0903511"
           height="1.1481265"
           x="83.616684"
           y="141.50246" /><rect
           style="fill:#ed6825;fill-opacity:1;stroke:none;stroke-width:0.261043"
           id="rect151"
           width="1.0757598"
           height="1.132762"
           x="85.090454"
           y="139.71442" /></g></g></g></svg>
